<svg width="48" height="48" viewBox="0 0 48 48" fill="none" xmlns="http://www.w3.org/2000/svg">
<path d="M5 5H39V39H5V5Z" fill="#4EFF9F"/>
<path fill-rule="evenodd" clip-rule="evenodd" d="M4 5C4 4.44772 4.44772 4 5 4H39C39.5523 4 40 4.44772 40 5V39C40 39.5523 39.5523 40 39 40H5C4.44772 40 4 39.5523 4 39V5ZM6 6V38H38V6H6Z" fill="black"/>
<path d="M10 22.2479C10.0014 28.028 14.2045 32.9495 19.9132 33.8553V25.6435H16.9323V22.2479H19.9167V19.6631C19.7832 18.4382 20.2016 17.2175 21.0583 16.332C21.915 15.4465 23.1212 14.9879 24.3498 15.0807C25.2316 15.095 26.1112 15.1735 26.9817 15.3157V18.2049H25.4966C24.9852 18.138 24.4712 18.3068 24.0992 18.664C23.7272 19.0211 23.5376 19.5278 23.5837 20.0413V22.2479H26.8396L26.319 25.6447H23.5837V33.8553C29.7574 32.8796 34.0867 27.2413 33.4352 21.0249C32.7835 14.8086 27.3791 10.1905 21.1372 10.5162C14.8953 10.842 10.001 15.9976 10 22.2479Z" fill="black"/>
</svg>
