<svg width="48" height="48" viewBox="0 0 48 48" fill="none" xmlns="http://www.w3.org/2000/svg">
<path d="M5 5H39V39H5V5Z" fill="#4EFF9F"/>
<path fill-rule="evenodd" clip-rule="evenodd" d="M4 5C4 4.44772 4.44772 4 5 4H39C39.5523 4 40 4.44772 40 5V39C40 39.5523 39.5523 40 39 40H5C4.44772 40 4 39.5523 4 39V5ZM6 6V38H38V6H6Z" fill="black"/>
<path d="M21.7498 18.6582C19.768 18.6582 18.1582 20.268 18.1582 22.2498C18.1582 24.2316 19.768 25.8453 21.7498 25.8453C23.7316 25.8453 25.3453 24.2316 25.3453 22.2498C25.3453 20.268 23.7316 18.6582 21.7498 18.6582Z" fill="black"/>
<path d="M27.1703 12.458H16.329C13.9203 12.458 11.958 14.4203 11.958 16.829V27.6703C11.958 30.083 13.9203 32.0413 16.329 32.0413H27.1703C29.583 32.0413 31.5413 30.083 31.5413 27.6703V16.829C31.5413 14.4203 29.583 12.458 27.1703 12.458V12.458ZM21.7497 28.5947C18.2521 28.5947 15.4047 25.7473 15.4047 22.2497C15.4047 18.7521 18.2521 15.9086 21.7497 15.9086C25.2473 15.9086 28.0947 18.7521 28.0947 22.2497C28.0947 25.7473 25.2473 28.5947 21.7497 28.5947ZM28.2278 17.0601C27.4876 17.0601 26.8844 16.4608 26.8844 15.7206C26.8844 14.9803 27.4876 14.3772 28.2278 14.3772C28.9681 14.3772 29.5713 14.9803 29.5713 15.7206C29.5713 16.4608 28.9681 17.0601 28.2278 17.0601Z" fill="black"/>
</svg>
