<svg width="48" height="48" viewBox="0 0 48 48" fill="none" xmlns="http://www.w3.org/2000/svg">
<path d="M5 5H39V39H5V5Z" fill="#4EFF9F"/>
<path fill-rule="evenodd" clip-rule="evenodd" d="M4 5C4 4.44772 4.44772 4 5 4H39C39.5523 4 40 4.44772 40 5V39C40 39.5523 39.5523 40 39 40H5C4.44772 40 4 39.5523 4 39V5ZM6 6V38H38V6H6Z" fill="black"/>
<path d="M30.7319 15.5099C31.7389 14.9079 32.4925 13.9598 32.8518 12.8429C31.9055 13.4044 30.87 13.7999 29.7904 14.0124C28.2936 12.4289 25.9219 12.0436 24.0007 13.0717C22.0795 14.0998 21.0844 16.2868 21.5714 18.4106C17.6951 18.216 14.0836 16.385 11.6357 13.3731C10.3582 15.5767 11.011 18.3935 13.1276 19.8104C12.3623 19.7858 11.6138 19.5786 10.9448 19.206C10.9448 19.2262 10.9448 19.2465 10.9448 19.2667C10.9452 21.562 12.563 23.5392 14.8128 23.9941C14.1029 24.1872 13.3582 24.2156 12.6356 24.0772C13.2683 26.0402 15.0774 27.385 17.1394 27.4251C15.4316 28.7654 13.3225 29.4924 11.1515 29.4888C10.7667 29.4894 10.3822 29.4673 10 29.4225C12.2046 30.8392 14.7705 31.5911 17.3911 31.5885C21.0369 31.6136 24.5406 30.1763 27.1185 27.5981C29.6965 25.0199 31.1336 21.516 31.1082 17.8702C31.1082 17.6613 31.1034 17.4535 31.0936 17.2467C32.0378 16.5644 32.8527 15.719 33.5 14.7505C32.6203 15.1404 31.6873 15.3964 30.7319 15.5099Z" fill="black"/>
</svg>
