<svg width="179" height="39" viewBox="0 0 179 39" fill="none" xmlns="http://www.w3.org/2000/svg">
<mask id="path-1-outside-1_1111_41636" maskUnits="userSpaceOnUse" x="4.40527" y="0.611328" width="174" height="38" fill="black">
<rect fill="white" x="4.40527" y="0.611328" width="174" height="38"/>
<path d="M29.499 3.1582L28.1865 13.0488C27.7334 12.9238 27.2803 12.8379 26.8271 12.791C26.374 12.7441 25.9209 12.7207 25.4678 12.7207C24.3115 12.7207 23.21 12.877 22.1631 13.1895C21.1162 13.4863 20.1865 13.9473 19.374 14.5723C18.5771 15.1973 17.9365 15.9785 17.4521 16.916C16.9834 17.8535 16.749 18.9551 16.749 20.2207C16.749 21.0332 16.874 21.7363 17.124 22.3301C17.3896 22.9238 17.7568 23.416 18.2256 23.8066C18.6943 24.1973 19.249 24.4863 19.8896 24.6738C20.5303 24.8613 21.2334 24.9551 21.999 24.9551C22.5771 24.9551 23.1787 24.8926 23.8037 24.7676C24.4287 24.6426 25.0459 24.4785 25.6553 24.2754C26.2646 24.0723 26.8584 23.8379 27.4365 23.5723C28.0146 23.3066 28.5459 23.0332 29.0303 22.752L28.0928 33.7676C27.4834 34.0801 26.8193 34.3613 26.1006 34.6113C25.3975 34.8457 24.6709 35.0566 23.9209 35.2441C23.1709 35.416 22.4209 35.5488 21.6709 35.6426C20.9209 35.7363 20.2021 35.7832 19.5146 35.7832C17.5303 35.7832 15.6787 35.416 13.96 34.6816C12.2412 33.9473 10.749 32.9395 9.4834 31.6582C8.21777 30.377 7.21777 28.8691 6.4834 27.1348C5.76465 25.3848 5.40527 23.502 5.40527 21.4863C5.40527 18.8145 5.78809 16.2988 6.55371 13.9395C7.31934 11.5645 8.44434 9.48633 9.92871 7.70508C11.4131 5.92383 13.249 4.51758 15.4365 3.48633C17.6396 2.45508 20.1709 1.93945 23.0303 1.93945C24.1084 1.93945 25.21 2.02539 26.335 2.19726C27.4756 2.36914 28.5303 2.68945 29.499 3.1582Z"/>
<path d="M58.4443 13.5176C58.4443 14.7363 58.335 15.8457 58.1162 16.8457C57.9131 17.8301 57.585 18.7363 57.1318 19.5645C56.6787 20.3926 56.0928 21.1582 55.374 21.8613C54.6553 22.5645 53.7881 23.2363 52.7725 23.877L58.3506 33.8145L47.8037 35.877L44.1943 25.8926L41.2881 25.9863L40.8662 35.7363H30.7881C30.8662 32.1738 30.9365 28.627 30.999 25.0957C31.0771 21.5645 31.1631 18.0176 31.2568 14.4551C31.2881 12.6582 31.3193 10.877 31.3506 9.11133C31.3818 7.3457 31.4443 5.56445 31.5381 3.76758C32.6318 3.36133 33.71 3.02539 34.7725 2.75976C35.835 2.49414 36.8975 2.29101 37.96 2.15039C39.0381 1.99414 40.124 1.89258 41.2178 1.8457C42.3271 1.7832 43.46 1.75195 44.6162 1.75195C46.3975 1.75195 48.1162 2.00195 49.7725 2.50195C51.4443 2.98633 52.9209 3.7207 54.2021 4.70508C55.4834 5.68945 56.5068 6.91601 57.2725 8.38476C58.0537 9.85351 58.4443 11.5645 58.4443 13.5176ZM47.9443 14.2676C47.9443 13.6113 47.8506 13.0098 47.6631 12.4629C47.4912 11.916 47.2256 11.4473 46.8662 11.0566C46.5225 10.6504 46.085 10.3379 45.5537 10.1191C45.0381 9.88476 44.4287 9.76758 43.7256 9.76758C43.4131 9.76758 43.1084 9.79101 42.8115 9.83789C42.5146 9.86914 42.2256 9.92383 41.9443 10.002L41.5693 18.7207H42.1318C42.8037 18.7207 43.4834 18.6348 44.1709 18.4629C44.874 18.291 45.499 18.0254 46.0459 17.666C46.6084 17.3066 47.0615 16.8457 47.4053 16.2832C47.7646 15.7207 47.9443 15.0488 47.9443 14.2676Z"/>
<path d="M89.6396 34.0957L78.0146 35.5957L76.6084 30.2988H71.2646L70.0928 35.5957L58.1396 34.4238L67.4678 3.20508L80.499 2.54883L89.6396 34.0957ZM75.7646 23.127L73.9834 14.9707L72.249 23.127H75.7646Z"/>
<path d="M111.577 10.377L100.843 24.8613H111.202L111.062 34.7988L90.1553 35.6426L89.2178 26.4551L101.452 10.5176L90.249 11.3613L90.1553 1.93945L111.155 1.93945L111.577 10.377Z"/>
<path d="M143.358 4.37695L130.468 22.377L129.858 37.0488H118.749L119.03 22.4707L112.327 5.08008L124.28 3.58008L126.155 13.7051L132.108 3.58008L143.358 4.37695Z"/>
<path d="M177.319 25.752C177.319 27.0176 177.147 28.1504 176.804 29.1504C176.46 30.1504 175.983 31.041 175.374 31.8223C174.78 32.5879 174.069 33.2441 173.241 33.791C172.429 34.3379 171.53 34.791 170.546 35.1504C169.577 35.4941 168.554 35.752 167.476 35.9238C166.397 36.0801 165.304 36.1582 164.194 36.1582C162.616 36.1582 161.054 35.9473 159.507 35.5254C157.976 35.1035 156.593 34.4629 155.358 33.6035C154.14 32.7285 153.147 31.6426 152.382 30.3457C151.632 29.0488 151.257 27.5176 151.257 25.752C151.257 25.0332 151.343 24.3145 151.515 23.5957C151.687 22.8613 151.937 22.166 152.265 21.5098C152.593 20.8535 153.007 20.2598 153.507 19.7285C154.007 19.1973 154.585 18.752 155.241 18.3926C154.21 17.4707 153.437 16.416 152.921 15.2285C152.405 14.0254 152.147 12.7363 152.147 11.3613C152.147 9.75195 152.499 8.3457 153.202 7.14258C153.921 5.92383 154.851 4.9082 155.991 4.0957C157.147 3.26758 158.444 2.65039 159.882 2.24414C161.319 1.82227 162.757 1.61133 164.194 1.61133C165.147 1.61133 166.101 1.70508 167.054 1.89258C168.022 2.08008 168.952 2.35352 169.843 2.71289C170.733 3.07227 171.562 3.52539 172.327 4.07227C173.108 4.61914 173.78 5.25977 174.343 5.99414C174.921 6.71289 175.374 7.52539 175.702 8.43164C176.03 9.32227 176.194 10.2988 176.194 11.3613C176.194 12.7363 175.937 14.0254 175.421 15.2285C174.905 16.416 174.132 17.4707 173.101 18.3926C174.601 19.1738 175.679 20.1816 176.335 21.416C176.991 22.6504 177.319 24.0957 177.319 25.752ZM168.085 13.6113C168.085 13.0957 167.968 12.6348 167.733 12.2285C167.515 11.8066 167.218 11.4473 166.843 11.1504C166.468 10.8535 166.046 10.627 165.577 10.4707C165.124 10.3145 164.663 10.2363 164.194 10.2363C163.71 10.2363 163.233 10.3145 162.765 10.4707C162.296 10.627 161.874 10.8535 161.499 11.1504C161.124 11.4473 160.819 11.8066 160.585 12.2285C160.366 12.6348 160.257 13.0957 160.257 13.6113C160.257 14.127 160.366 14.5957 160.585 15.0176C160.819 15.4238 161.124 15.7676 161.499 16.0488C161.874 16.3301 162.296 16.5488 162.765 16.7051C163.233 16.8613 163.71 16.9395 164.194 16.9395C164.663 16.9395 165.124 16.8613 165.577 16.7051C166.046 16.5488 166.468 16.3301 166.843 16.0488C167.218 15.7676 167.515 15.4238 167.733 15.0176C167.968 14.5957 168.085 14.127 168.085 13.6113ZM168.038 24.627C168.038 24.1113 167.921 23.6504 167.687 23.2441C167.468 22.8223 167.179 22.4707 166.819 22.1895C166.46 21.9082 166.046 21.6895 165.577 21.5332C165.124 21.377 164.663 21.2988 164.194 21.2988C163.726 21.2988 163.257 21.377 162.788 21.5332C162.335 21.6895 161.921 21.9082 161.546 22.1895C161.171 22.4707 160.866 22.8223 160.632 23.2441C160.413 23.6504 160.304 24.1113 160.304 24.627C160.304 25.127 160.413 25.5801 160.632 25.9863C160.866 26.3926 161.171 26.7363 161.546 27.0176C161.921 27.2988 162.335 27.5176 162.788 27.6738C163.257 27.8301 163.726 27.9082 164.194 27.9082C164.663 27.9082 165.124 27.8301 165.577 27.6738C166.046 27.5176 166.46 27.2988 166.819 27.0176C167.179 26.7363 167.468 26.3926 167.687 25.9863C167.921 25.5801 168.038 25.127 168.038 24.627Z"/>
</mask>
<path d="M29.499 3.1582L28.1865 13.0488C27.7334 12.9238 27.2803 12.8379 26.8271 12.791C26.374 12.7441 25.9209 12.7207 25.4678 12.7207C24.3115 12.7207 23.21 12.877 22.1631 13.1895C21.1162 13.4863 20.1865 13.9473 19.374 14.5723C18.5771 15.1973 17.9365 15.9785 17.4521 16.916C16.9834 17.8535 16.749 18.9551 16.749 20.2207C16.749 21.0332 16.874 21.7363 17.124 22.3301C17.3896 22.9238 17.7568 23.416 18.2256 23.8066C18.6943 24.1973 19.249 24.4863 19.8896 24.6738C20.5303 24.8613 21.2334 24.9551 21.999 24.9551C22.5771 24.9551 23.1787 24.8926 23.8037 24.7676C24.4287 24.6426 25.0459 24.4785 25.6553 24.2754C26.2646 24.0723 26.8584 23.8379 27.4365 23.5723C28.0146 23.3066 28.5459 23.0332 29.0303 22.752L28.0928 33.7676C27.4834 34.0801 26.8193 34.3613 26.1006 34.6113C25.3975 34.8457 24.6709 35.0566 23.9209 35.2441C23.1709 35.416 22.4209 35.5488 21.6709 35.6426C20.9209 35.7363 20.2021 35.7832 19.5146 35.7832C17.5303 35.7832 15.6787 35.416 13.96 34.6816C12.2412 33.9473 10.749 32.9395 9.4834 31.6582C8.21777 30.377 7.21777 28.8691 6.4834 27.1348C5.76465 25.3848 5.40527 23.502 5.40527 21.4863C5.40527 18.8145 5.78809 16.2988 6.55371 13.9395C7.31934 11.5645 8.44434 9.48633 9.92871 7.70508C11.4131 5.92383 13.249 4.51758 15.4365 3.48633C17.6396 2.45508 20.1709 1.93945 23.0303 1.93945C24.1084 1.93945 25.21 2.02539 26.335 2.19726C27.4756 2.36914 28.5303 2.68945 29.499 3.1582Z" fill="#FFFCE3"/>
<path d="M58.4443 13.5176C58.4443 14.7363 58.335 15.8457 58.1162 16.8457C57.9131 17.8301 57.585 18.7363 57.1318 19.5645C56.6787 20.3926 56.0928 21.1582 55.374 21.8613C54.6553 22.5645 53.7881 23.2363 52.7725 23.877L58.3506 33.8145L47.8037 35.877L44.1943 25.8926L41.2881 25.9863L40.8662 35.7363H30.7881C30.8662 32.1738 30.9365 28.627 30.999 25.0957C31.0771 21.5645 31.1631 18.0176 31.2568 14.4551C31.2881 12.6582 31.3193 10.877 31.3506 9.11133C31.3818 7.3457 31.4443 5.56445 31.5381 3.76758C32.6318 3.36133 33.71 3.02539 34.7725 2.75976C35.835 2.49414 36.8975 2.29101 37.96 2.15039C39.0381 1.99414 40.124 1.89258 41.2178 1.8457C42.3271 1.7832 43.46 1.75195 44.6162 1.75195C46.3975 1.75195 48.1162 2.00195 49.7725 2.50195C51.4443 2.98633 52.9209 3.7207 54.2021 4.70508C55.4834 5.68945 56.5068 6.91601 57.2725 8.38476C58.0537 9.85351 58.4443 11.5645 58.4443 13.5176ZM47.9443 14.2676C47.9443 13.6113 47.8506 13.0098 47.6631 12.4629C47.4912 11.916 47.2256 11.4473 46.8662 11.0566C46.5225 10.6504 46.085 10.3379 45.5537 10.1191C45.0381 9.88476 44.4287 9.76758 43.7256 9.76758C43.4131 9.76758 43.1084 9.79101 42.8115 9.83789C42.5146 9.86914 42.2256 9.92383 41.9443 10.002L41.5693 18.7207H42.1318C42.8037 18.7207 43.4834 18.6348 44.1709 18.4629C44.874 18.291 45.499 18.0254 46.0459 17.666C46.6084 17.3066 47.0615 16.8457 47.4053 16.2832C47.7646 15.7207 47.9443 15.0488 47.9443 14.2676Z" fill="#FFFCE3"/>
<path d="M89.6396 34.0957L78.0146 35.5957L76.6084 30.2988H71.2646L70.0928 35.5957L58.1396 34.4238L67.4678 3.20508L80.499 2.54883L89.6396 34.0957ZM75.7646 23.127L73.9834 14.9707L72.249 23.127H75.7646Z" fill="#FFFCE3"/>
<path d="M111.577 10.377L100.843 24.8613H111.202L111.062 34.7988L90.1553 35.6426L89.2178 26.4551L101.452 10.5176L90.249 11.3613L90.1553 1.93945L111.155 1.93945L111.577 10.377Z" fill="#FFFCE3"/>
<path d="M143.358 4.37695L130.468 22.377L129.858 37.0488H118.749L119.03 22.4707L112.327 5.08008L124.28 3.58008L126.155 13.7051L132.108 3.58008L143.358 4.37695Z" fill="#FFFCE3"/>
<path d="M177.319 25.752C177.319 27.0176 177.147 28.1504 176.804 29.1504C176.46 30.1504 175.983 31.041 175.374 31.8223C174.78 32.5879 174.069 33.2441 173.241 33.791C172.429 34.3379 171.53 34.791 170.546 35.1504C169.577 35.4941 168.554 35.752 167.476 35.9238C166.397 36.0801 165.304 36.1582 164.194 36.1582C162.616 36.1582 161.054 35.9473 159.507 35.5254C157.976 35.1035 156.593 34.4629 155.358 33.6035C154.14 32.7285 153.147 31.6426 152.382 30.3457C151.632 29.0488 151.257 27.5176 151.257 25.752C151.257 25.0332 151.343 24.3145 151.515 23.5957C151.687 22.8613 151.937 22.166 152.265 21.5098C152.593 20.8535 153.007 20.2598 153.507 19.7285C154.007 19.1973 154.585 18.752 155.241 18.3926C154.21 17.4707 153.437 16.416 152.921 15.2285C152.405 14.0254 152.147 12.7363 152.147 11.3613C152.147 9.75195 152.499 8.3457 153.202 7.14258C153.921 5.92383 154.851 4.9082 155.991 4.0957C157.147 3.26758 158.444 2.65039 159.882 2.24414C161.319 1.82227 162.757 1.61133 164.194 1.61133C165.147 1.61133 166.101 1.70508 167.054 1.89258C168.022 2.08008 168.952 2.35352 169.843 2.71289C170.733 3.07227 171.562 3.52539 172.327 4.07227C173.108 4.61914 173.78 5.25977 174.343 5.99414C174.921 6.71289 175.374 7.52539 175.702 8.43164C176.03 9.32227 176.194 10.2988 176.194 11.3613C176.194 12.7363 175.937 14.0254 175.421 15.2285C174.905 16.416 174.132 17.4707 173.101 18.3926C174.601 19.1738 175.679 20.1816 176.335 21.416C176.991 22.6504 177.319 24.0957 177.319 25.752ZM168.085 13.6113C168.085 13.0957 167.968 12.6348 167.733 12.2285C167.515 11.8066 167.218 11.4473 166.843 11.1504C166.468 10.8535 166.046 10.627 165.577 10.4707C165.124 10.3145 164.663 10.2363 164.194 10.2363C163.71 10.2363 163.233 10.3145 162.765 10.4707C162.296 10.627 161.874 10.8535 161.499 11.1504C161.124 11.4473 160.819 11.8066 160.585 12.2285C160.366 12.6348 160.257 13.0957 160.257 13.6113C160.257 14.127 160.366 14.5957 160.585 15.0176C160.819 15.4238 161.124 15.7676 161.499 16.0488C161.874 16.3301 162.296 16.5488 162.765 16.7051C163.233 16.8613 163.71 16.9395 164.194 16.9395C164.663 16.9395 165.124 16.8613 165.577 16.7051C166.046 16.5488 166.468 16.3301 166.843 16.0488C167.218 15.7676 167.515 15.4238 167.733 15.0176C167.968 14.5957 168.085 14.127 168.085 13.6113ZM168.038 24.627C168.038 24.1113 167.921 23.6504 167.687 23.2441C167.468 22.8223 167.179 22.4707 166.819 22.1895C166.46 21.9082 166.046 21.6895 165.577 21.5332C165.124 21.377 164.663 21.2988 164.194 21.2988C163.726 21.2988 163.257 21.377 162.788 21.5332C162.335 21.6895 161.921 21.9082 161.546 22.1895C161.171 22.4707 160.866 22.8223 160.632 23.2441C160.413 23.6504 160.304 24.1113 160.304 24.627C160.304 25.127 160.413 25.5801 160.632 25.9863C160.866 26.3926 161.171 26.7363 161.546 27.0176C161.921 27.2988 162.335 27.5176 162.788 27.6738C163.257 27.8301 163.726 27.9082 164.194 27.9082C164.663 27.9082 165.124 27.8301 165.577 27.6738C166.046 27.5176 166.46 27.2988 166.819 27.0176C167.179 26.7363 167.468 26.3926 167.687 25.9863C167.921 25.5801 168.038 25.127 168.038 24.627Z" fill="#FFFCE3"/>
<path d="M29.499 3.1582L28.1865 13.0488C27.7334 12.9238 27.2803 12.8379 26.8271 12.791C26.374 12.7441 25.9209 12.7207 25.4678 12.7207C24.3115 12.7207 23.21 12.877 22.1631 13.1895C21.1162 13.4863 20.1865 13.9473 19.374 14.5723C18.5771 15.1973 17.9365 15.9785 17.4521 16.916C16.9834 17.8535 16.749 18.9551 16.749 20.2207C16.749 21.0332 16.874 21.7363 17.124 22.3301C17.3896 22.9238 17.7568 23.416 18.2256 23.8066C18.6943 24.1973 19.249 24.4863 19.8896 24.6738C20.5303 24.8613 21.2334 24.9551 21.999 24.9551C22.5771 24.9551 23.1787 24.8926 23.8037 24.7676C24.4287 24.6426 25.0459 24.4785 25.6553 24.2754C26.2646 24.0723 26.8584 23.8379 27.4365 23.5723C28.0146 23.3066 28.5459 23.0332 29.0303 22.752L28.0928 33.7676C27.4834 34.0801 26.8193 34.3613 26.1006 34.6113C25.3975 34.8457 24.6709 35.0566 23.9209 35.2441C23.1709 35.416 22.4209 35.5488 21.6709 35.6426C20.9209 35.7363 20.2021 35.7832 19.5146 35.7832C17.5303 35.7832 15.6787 35.416 13.96 34.6816C12.2412 33.9473 10.749 32.9395 9.4834 31.6582C8.21777 30.377 7.21777 28.8691 6.4834 27.1348C5.76465 25.3848 5.40527 23.502 5.40527 21.4863C5.40527 18.8145 5.78809 16.2988 6.55371 13.9395C7.31934 11.5645 8.44434 9.48633 9.92871 7.70508C11.4131 5.92383 13.249 4.51758 15.4365 3.48633C17.6396 2.45508 20.1709 1.93945 23.0303 1.93945C24.1084 1.93945 25.21 2.02539 26.335 2.19726C27.4756 2.36914 28.5303 2.68945 29.499 3.1582Z" stroke="black" stroke-width="2" mask="url(#path-1-outside-1_1111_41636)"/>
<path d="M58.4443 13.5176C58.4443 14.7363 58.335 15.8457 58.1162 16.8457C57.9131 17.8301 57.585 18.7363 57.1318 19.5645C56.6787 20.3926 56.0928 21.1582 55.374 21.8613C54.6553 22.5645 53.7881 23.2363 52.7725 23.877L58.3506 33.8145L47.8037 35.877L44.1943 25.8926L41.2881 25.9863L40.8662 35.7363H30.7881C30.8662 32.1738 30.9365 28.627 30.999 25.0957C31.0771 21.5645 31.1631 18.0176 31.2568 14.4551C31.2881 12.6582 31.3193 10.877 31.3506 9.11133C31.3818 7.3457 31.4443 5.56445 31.5381 3.76758C32.6318 3.36133 33.71 3.02539 34.7725 2.75976C35.835 2.49414 36.8975 2.29101 37.96 2.15039C39.0381 1.99414 40.124 1.89258 41.2178 1.8457C42.3271 1.7832 43.46 1.75195 44.6162 1.75195C46.3975 1.75195 48.1162 2.00195 49.7725 2.50195C51.4443 2.98633 52.9209 3.7207 54.2021 4.70508C55.4834 5.68945 56.5068 6.91601 57.2725 8.38476C58.0537 9.85351 58.4443 11.5645 58.4443 13.5176ZM47.9443 14.2676C47.9443 13.6113 47.8506 13.0098 47.6631 12.4629C47.4912 11.916 47.2256 11.4473 46.8662 11.0566C46.5225 10.6504 46.085 10.3379 45.5537 10.1191C45.0381 9.88476 44.4287 9.76758 43.7256 9.76758C43.4131 9.76758 43.1084 9.79101 42.8115 9.83789C42.5146 9.86914 42.2256 9.92383 41.9443 10.002L41.5693 18.7207H42.1318C42.8037 18.7207 43.4834 18.6348 44.1709 18.4629C44.874 18.291 45.499 18.0254 46.0459 17.666C46.6084 17.3066 47.0615 16.8457 47.4053 16.2832C47.7646 15.7207 47.9443 15.0488 47.9443 14.2676Z" stroke="black" stroke-width="2" mask="url(#path-1-outside-1_1111_41636)"/>
<path d="M89.6396 34.0957L78.0146 35.5957L76.6084 30.2988H71.2646L70.0928 35.5957L58.1396 34.4238L67.4678 3.20508L80.499 2.54883L89.6396 34.0957ZM75.7646 23.127L73.9834 14.9707L72.249 23.127H75.7646Z" stroke="black" stroke-width="2" mask="url(#path-1-outside-1_1111_41636)"/>
<path d="M111.577 10.377L100.843 24.8613H111.202L111.062 34.7988L90.1553 35.6426L89.2178 26.4551L101.452 10.5176L90.249 11.3613L90.1553 1.93945L111.155 1.93945L111.577 10.377Z" stroke="black" stroke-width="2" mask="url(#path-1-outside-1_1111_41636)"/>
<path d="M143.358 4.37695L130.468 22.377L129.858 37.0488H118.749L119.03 22.4707L112.327 5.08008L124.28 3.58008L126.155 13.7051L132.108 3.58008L143.358 4.37695Z" stroke="black" stroke-width="2" mask="url(#path-1-outside-1_1111_41636)"/>
<path d="M177.319 25.752C177.319 27.0176 177.147 28.1504 176.804 29.1504C176.46 30.1504 175.983 31.041 175.374 31.8223C174.78 32.5879 174.069 33.2441 173.241 33.791C172.429 34.3379 171.53 34.791 170.546 35.1504C169.577 35.4941 168.554 35.752 167.476 35.9238C166.397 36.0801 165.304 36.1582 164.194 36.1582C162.616 36.1582 161.054 35.9473 159.507 35.5254C157.976 35.1035 156.593 34.4629 155.358 33.6035C154.14 32.7285 153.147 31.6426 152.382 30.3457C151.632 29.0488 151.257 27.5176 151.257 25.752C151.257 25.0332 151.343 24.3145 151.515 23.5957C151.687 22.8613 151.937 22.166 152.265 21.5098C152.593 20.8535 153.007 20.2598 153.507 19.7285C154.007 19.1973 154.585 18.752 155.241 18.3926C154.21 17.4707 153.437 16.416 152.921 15.2285C152.405 14.0254 152.147 12.7363 152.147 11.3613C152.147 9.75195 152.499 8.3457 153.202 7.14258C153.921 5.92383 154.851 4.9082 155.991 4.0957C157.147 3.26758 158.444 2.65039 159.882 2.24414C161.319 1.82227 162.757 1.61133 164.194 1.61133C165.147 1.61133 166.101 1.70508 167.054 1.89258C168.022 2.08008 168.952 2.35352 169.843 2.71289C170.733 3.07227 171.562 3.52539 172.327 4.07227C173.108 4.61914 173.78 5.25977 174.343 5.99414C174.921 6.71289 175.374 7.52539 175.702 8.43164C176.03 9.32227 176.194 10.2988 176.194 11.3613C176.194 12.7363 175.937 14.0254 175.421 15.2285C174.905 16.416 174.132 17.4707 173.101 18.3926C174.601 19.1738 175.679 20.1816 176.335 21.416C176.991 22.6504 177.319 24.0957 177.319 25.752ZM168.085 13.6113C168.085 13.0957 167.968 12.6348 167.733 12.2285C167.515 11.8066 167.218 11.4473 166.843 11.1504C166.468 10.8535 166.046 10.627 165.577 10.4707C165.124 10.3145 164.663 10.2363 164.194 10.2363C163.71 10.2363 163.233 10.3145 162.765 10.4707C162.296 10.627 161.874 10.8535 161.499 11.1504C161.124 11.4473 160.819 11.8066 160.585 12.2285C160.366 12.6348 160.257 13.0957 160.257 13.6113C160.257 14.127 160.366 14.5957 160.585 15.0176C160.819 15.4238 161.124 15.7676 161.499 16.0488C161.874 16.3301 162.296 16.5488 162.765 16.7051C163.233 16.8613 163.71 16.9395 164.194 16.9395C164.663 16.9395 165.124 16.8613 165.577 16.7051C166.046 16.5488 166.468 16.3301 166.843 16.0488C167.218 15.7676 167.515 15.4238 167.733 15.0176C167.968 14.5957 168.085 14.127 168.085 13.6113ZM168.038 24.627C168.038 24.1113 167.921 23.6504 167.687 23.2441C167.468 22.8223 167.179 22.4707 166.819 22.1895C166.46 21.9082 166.046 21.6895 165.577 21.5332C165.124 21.377 164.663 21.2988 164.194 21.2988C163.726 21.2988 163.257 21.377 162.788 21.5332C162.335 21.6895 161.921 21.9082 161.546 22.1895C161.171 22.4707 160.866 22.8223 160.632 23.2441C160.413 23.6504 160.304 24.1113 160.304 24.627C160.304 25.127 160.413 25.5801 160.632 25.9863C160.866 26.3926 161.171 26.7363 161.546 27.0176C161.921 27.2988 162.335 27.5176 162.788 27.6738C163.257 27.8301 163.726 27.9082 164.194 27.9082C164.663 27.9082 165.124 27.8301 165.577 27.6738C166.046 27.5176 166.46 27.2988 166.819 27.0176C167.179 26.7363 167.468 26.3926 167.687 25.9863C167.921 25.5801 168.038 25.127 168.038 24.627Z" stroke="black" stroke-width="2" mask="url(#path-1-outside-1_1111_41636)"/>
<mask id="path-2-outside-2_1111_41636" maskUnits="userSpaceOnUse" x="0.328125" y="0.5" width="174" height="38" fill="black">
<rect fill="white" x="0.328125" y="0.5" width="174" height="38"/>
<path d="M25.4219 3.04687L24.1094 12.9375C23.6562 12.8125 23.2031 12.7266 22.75 12.6797C22.2969 12.6328 21.8438 12.6094 21.3906 12.6094C20.2344 12.6094 19.1328 12.7656 18.0859 13.0781C17.0391 13.375 16.1094 13.8359 15.2969 14.4609C14.5 15.0859 13.8594 15.8672 13.375 16.8047C12.9062 17.7422 12.6719 18.8437 12.6719 20.1094C12.6719 20.9219 12.7969 21.625 13.0469 22.2187C13.3125 22.8125 13.6797 23.3047 14.1484 23.6953C14.6172 24.0859 15.1719 24.375 15.8125 24.5625C16.4531 24.75 17.1562 24.8437 17.9219 24.8437C18.5 24.8437 19.1016 24.7812 19.7266 24.6562C20.3516 24.5312 20.9688 24.3672 21.5781 24.1641C22.1875 23.9609 22.7812 23.7266 23.3594 23.4609C23.9375 23.1953 24.4688 22.9219 24.9531 22.6406L24.0156 33.6562C23.4062 33.9688 22.7422 34.25 22.0234 34.5C21.3203 34.7344 20.5938 34.9453 19.8438 35.1328C19.0938 35.3047 18.3438 35.4375 17.5938 35.5312C16.8438 35.625 16.125 35.6719 15.4375 35.6719C13.4531 35.6719 11.6016 35.3047 9.88281 34.5703C8.16406 33.8359 6.67188 32.8281 5.40625 31.5469C4.14062 30.2656 3.14062 28.7578 2.40625 27.0234C1.6875 25.2734 1.32812 23.3906 1.32812 21.375C1.32813 18.7031 1.71094 16.1875 2.47656 13.8281C3.24219 11.4531 4.36719 9.375 5.85156 7.59375C7.33594 5.8125 9.17188 4.40625 11.3594 3.375C13.5625 2.34375 16.0938 1.82812 18.9531 1.82812C20.0312 1.82812 21.1328 1.91406 22.2578 2.08594C23.3984 2.25781 24.4531 2.57812 25.4219 3.04687Z"/>
<path d="M54.3672 13.4062C54.3672 14.625 54.2578 15.7344 54.0391 16.7344C53.8359 17.7187 53.5078 18.625 53.0547 19.4531C52.6016 20.2812 52.0156 21.0469 51.2969 21.75C50.5781 22.4531 49.7109 23.125 48.6953 23.7656L54.2734 33.7031L43.7266 35.7656L40.1172 25.7812L37.2109 25.875L36.7891 35.625H26.7109C26.7891 32.0625 26.8594 28.5156 26.9219 24.9844C27 21.4531 27.0859 17.9062 27.1797 14.3437C27.2109 12.5469 27.2422 10.7656 27.2734 9C27.3047 7.23437 27.3672 5.45312 27.4609 3.65625C28.5547 3.25 29.6328 2.91406 30.6953 2.64844C31.7578 2.38281 32.8203 2.17969 33.8828 2.03906C34.9609 1.88281 36.0469 1.78125 37.1406 1.73437C38.25 1.67187 39.3828 1.64062 40.5391 1.64062C42.3203 1.64062 44.0391 1.89062 45.6953 2.39062C47.3672 2.875 48.8438 3.60937 50.125 4.59375C51.4062 5.57812 52.4297 6.80469 53.1953 8.27344C53.9766 9.74219 54.3672 11.4531 54.3672 13.4062ZM43.8672 14.1562C43.8672 13.5 43.7734 12.8984 43.5859 12.3516C43.4141 11.8047 43.1484 11.3359 42.7891 10.9453C42.4453 10.5391 42.0078 10.2266 41.4766 10.0078C40.9609 9.77344 40.3516 9.65625 39.6484 9.65625C39.3359 9.65625 39.0312 9.67969 38.7344 9.72656C38.4375 9.75781 38.1484 9.8125 37.8672 9.89062L37.4922 18.6094H38.0547C38.7266 18.6094 39.4062 18.5234 40.0938 18.3516C40.7969 18.1797 41.4219 17.9141 41.9688 17.5547C42.5312 17.1953 42.9844 16.7344 43.3281 16.1719C43.6875 15.6094 43.8672 14.9375 43.8672 14.1562Z"/>
<path d="M85.5625 33.9844L73.9375 35.4844L72.5312 30.1875H67.1875L66.0156 35.4844L54.0625 34.3125L63.3906 3.09375L76.4219 2.4375L85.5625 33.9844ZM71.6875 23.0156L69.9062 14.8594L68.1719 23.0156H71.6875Z"/>
<path d="M107.5 10.2656L96.7656 24.75H107.125L106.984 34.6875L86.0781 35.5312L85.1406 26.3438L97.375 10.4062L86.1719 11.25L86.0781 1.82812L107.078 1.82812L107.5 10.2656Z"/>
<path d="M139.281 4.26562L126.391 22.2656L125.781 36.9375H114.672L114.953 22.3594L108.25 4.96875L120.203 3.46875L122.078 13.5938L128.031 3.46875L139.281 4.26562Z"/>
<path d="M173.242 25.6406C173.242 26.9062 173.07 28.0391 172.727 29.0391C172.383 30.0391 171.906 30.9297 171.297 31.7109C170.703 32.4766 169.992 33.1328 169.164 33.6797C168.352 34.2266 167.453 34.6797 166.469 35.0391C165.5 35.3828 164.477 35.6406 163.398 35.8125C162.32 35.9688 161.227 36.0469 160.117 36.0469C158.539 36.0469 156.977 35.8359 155.43 35.4141C153.898 34.9922 152.516 34.3516 151.281 33.4922C150.062 32.6172 149.07 31.5312 148.305 30.2344C147.555 28.9375 147.18 27.4062 147.18 25.6406C147.18 24.9219 147.266 24.2031 147.438 23.4844C147.609 22.75 147.859 22.0547 148.188 21.3984C148.516 20.7422 148.93 20.1484 149.43 19.6172C149.93 19.0859 150.508 18.6406 151.164 18.2812C150.133 17.3594 149.359 16.3047 148.844 15.1172C148.328 13.9141 148.07 12.625 148.07 11.25C148.07 9.64062 148.422 8.23438 149.125 7.03125C149.844 5.8125 150.773 4.79688 151.914 3.98438C153.07 3.15625 154.367 2.53906 155.805 2.13281C157.242 1.71094 158.68 1.5 160.117 1.5C161.07 1.5 162.023 1.59375 162.977 1.78125C163.945 1.96875 164.875 2.24219 165.766 2.60156C166.656 2.96094 167.484 3.41406 168.25 3.96094C169.031 4.50781 169.703 5.14844 170.266 5.88281C170.844 6.60156 171.297 7.41406 171.625 8.32031C171.953 9.21094 172.117 10.1875 172.117 11.25C172.117 12.625 171.859 13.9141 171.344 15.1172C170.828 16.3047 170.055 17.3594 169.023 18.2812C170.523 19.0625 171.602 20.0703 172.258 21.3047C172.914 22.5391 173.242 23.9844 173.242 25.6406ZM164.008 13.5C164.008 12.9844 163.891 12.5234 163.656 12.1172C163.438 11.6953 163.141 11.3359 162.766 11.0391C162.391 10.7422 161.969 10.5156 161.5 10.3594C161.047 10.2031 160.586 10.125 160.117 10.125C159.633 10.125 159.156 10.2031 158.688 10.3594C158.219 10.5156 157.797 10.7422 157.422 11.0391C157.047 11.3359 156.742 11.6953 156.508 12.1172C156.289 12.5234 156.18 12.9844 156.18 13.5C156.18 14.0156 156.289 14.4844 156.508 14.9062C156.742 15.3125 157.047 15.6562 157.422 15.9375C157.797 16.2188 158.219 16.4375 158.688 16.5938C159.156 16.75 159.633 16.8281 160.117 16.8281C160.586 16.8281 161.047 16.75 161.5 16.5938C161.969 16.4375 162.391 16.2188 162.766 15.9375C163.141 15.6562 163.438 15.3125 163.656 14.9062C163.891 14.4844 164.008 14.0156 164.008 13.5ZM163.961 24.5156C163.961 24 163.844 23.5391 163.609 23.1328C163.391 22.7109 163.102 22.3594 162.742 22.0781C162.383 21.7969 161.969 21.5781 161.5 21.4219C161.047 21.2656 160.586 21.1875 160.117 21.1875C159.648 21.1875 159.18 21.2656 158.711 21.4219C158.258 21.5781 157.844 21.7969 157.469 22.0781C157.094 22.3594 156.789 22.7109 156.555 23.1328C156.336 23.5391 156.227 24 156.227 24.5156C156.227 25.0156 156.336 25.4688 156.555 25.875C156.789 26.2812 157.094 26.625 157.469 26.9062C157.844 27.1875 158.258 27.4062 158.711 27.5625C159.18 27.7188 159.648 27.7969 160.117 27.7969C160.586 27.7969 161.047 27.7188 161.5 27.5625C161.969 27.4062 162.383 27.1875 162.742 26.9062C163.102 26.625 163.391 26.2812 163.609 25.875C163.844 25.4688 163.961 25.0156 163.961 24.5156Z"/>
</mask>
<path d="M25.4219 3.04687L24.1094 12.9375C23.6562 12.8125 23.2031 12.7266 22.75 12.6797C22.2969 12.6328 21.8438 12.6094 21.3906 12.6094C20.2344 12.6094 19.1328 12.7656 18.0859 13.0781C17.0391 13.375 16.1094 13.8359 15.2969 14.4609C14.5 15.0859 13.8594 15.8672 13.375 16.8047C12.9062 17.7422 12.6719 18.8437 12.6719 20.1094C12.6719 20.9219 12.7969 21.625 13.0469 22.2187C13.3125 22.8125 13.6797 23.3047 14.1484 23.6953C14.6172 24.0859 15.1719 24.375 15.8125 24.5625C16.4531 24.75 17.1562 24.8437 17.9219 24.8437C18.5 24.8437 19.1016 24.7812 19.7266 24.6562C20.3516 24.5312 20.9688 24.3672 21.5781 24.1641C22.1875 23.9609 22.7812 23.7266 23.3594 23.4609C23.9375 23.1953 24.4688 22.9219 24.9531 22.6406L24.0156 33.6562C23.4062 33.9688 22.7422 34.25 22.0234 34.5C21.3203 34.7344 20.5938 34.9453 19.8438 35.1328C19.0938 35.3047 18.3438 35.4375 17.5938 35.5312C16.8438 35.625 16.125 35.6719 15.4375 35.6719C13.4531 35.6719 11.6016 35.3047 9.88281 34.5703C8.16406 33.8359 6.67188 32.8281 5.40625 31.5469C4.14062 30.2656 3.14062 28.7578 2.40625 27.0234C1.6875 25.2734 1.32812 23.3906 1.32812 21.375C1.32813 18.7031 1.71094 16.1875 2.47656 13.8281C3.24219 11.4531 4.36719 9.375 5.85156 7.59375C7.33594 5.8125 9.17188 4.40625 11.3594 3.375C13.5625 2.34375 16.0938 1.82812 18.9531 1.82812C20.0312 1.82812 21.1328 1.91406 22.2578 2.08594C23.3984 2.25781 24.4531 2.57812 25.4219 3.04687Z" fill="#4EFF9F"/>
<path d="M54.3672 13.4062C54.3672 14.625 54.2578 15.7344 54.0391 16.7344C53.8359 17.7187 53.5078 18.625 53.0547 19.4531C52.6016 20.2812 52.0156 21.0469 51.2969 21.75C50.5781 22.4531 49.7109 23.125 48.6953 23.7656L54.2734 33.7031L43.7266 35.7656L40.1172 25.7812L37.2109 25.875L36.7891 35.625H26.7109C26.7891 32.0625 26.8594 28.5156 26.9219 24.9844C27 21.4531 27.0859 17.9062 27.1797 14.3437C27.2109 12.5469 27.2422 10.7656 27.2734 9C27.3047 7.23437 27.3672 5.45312 27.4609 3.65625C28.5547 3.25 29.6328 2.91406 30.6953 2.64844C31.7578 2.38281 32.8203 2.17969 33.8828 2.03906C34.9609 1.88281 36.0469 1.78125 37.1406 1.73437C38.25 1.67187 39.3828 1.64062 40.5391 1.64062C42.3203 1.64062 44.0391 1.89062 45.6953 2.39062C47.3672 2.875 48.8438 3.60937 50.125 4.59375C51.4062 5.57812 52.4297 6.80469 53.1953 8.27344C53.9766 9.74219 54.3672 11.4531 54.3672 13.4062ZM43.8672 14.1562C43.8672 13.5 43.7734 12.8984 43.5859 12.3516C43.4141 11.8047 43.1484 11.3359 42.7891 10.9453C42.4453 10.5391 42.0078 10.2266 41.4766 10.0078C40.9609 9.77344 40.3516 9.65625 39.6484 9.65625C39.3359 9.65625 39.0312 9.67969 38.7344 9.72656C38.4375 9.75781 38.1484 9.8125 37.8672 9.89062L37.4922 18.6094H38.0547C38.7266 18.6094 39.4062 18.5234 40.0938 18.3516C40.7969 18.1797 41.4219 17.9141 41.9688 17.5547C42.5312 17.1953 42.9844 16.7344 43.3281 16.1719C43.6875 15.6094 43.8672 14.9375 43.8672 14.1562Z" fill="#4EFF9F"/>
<path d="M85.5625 33.9844L73.9375 35.4844L72.5312 30.1875H67.1875L66.0156 35.4844L54.0625 34.3125L63.3906 3.09375L76.4219 2.4375L85.5625 33.9844ZM71.6875 23.0156L69.9062 14.8594L68.1719 23.0156H71.6875Z" fill="#4EFF9F"/>
<path d="M107.5 10.2656L96.7656 24.75H107.125L106.984 34.6875L86.0781 35.5312L85.1406 26.3438L97.375 10.4062L86.1719 11.25L86.0781 1.82812L107.078 1.82812L107.5 10.2656Z" fill="#4EFF9F"/>
<path d="M139.281 4.26562L126.391 22.2656L125.781 36.9375H114.672L114.953 22.3594L108.25 4.96875L120.203 3.46875L122.078 13.5938L128.031 3.46875L139.281 4.26562Z" fill="#4EFF9F"/>
<path d="M173.242 25.6406C173.242 26.9062 173.07 28.0391 172.727 29.0391C172.383 30.0391 171.906 30.9297 171.297 31.7109C170.703 32.4766 169.992 33.1328 169.164 33.6797C168.352 34.2266 167.453 34.6797 166.469 35.0391C165.5 35.3828 164.477 35.6406 163.398 35.8125C162.32 35.9688 161.227 36.0469 160.117 36.0469C158.539 36.0469 156.977 35.8359 155.43 35.4141C153.898 34.9922 152.516 34.3516 151.281 33.4922C150.062 32.6172 149.07 31.5312 148.305 30.2344C147.555 28.9375 147.18 27.4062 147.18 25.6406C147.18 24.9219 147.266 24.2031 147.438 23.4844C147.609 22.75 147.859 22.0547 148.188 21.3984C148.516 20.7422 148.93 20.1484 149.43 19.6172C149.93 19.0859 150.508 18.6406 151.164 18.2812C150.133 17.3594 149.359 16.3047 148.844 15.1172C148.328 13.9141 148.07 12.625 148.07 11.25C148.07 9.64062 148.422 8.23438 149.125 7.03125C149.844 5.8125 150.773 4.79688 151.914 3.98438C153.07 3.15625 154.367 2.53906 155.805 2.13281C157.242 1.71094 158.68 1.5 160.117 1.5C161.07 1.5 162.023 1.59375 162.977 1.78125C163.945 1.96875 164.875 2.24219 165.766 2.60156C166.656 2.96094 167.484 3.41406 168.25 3.96094C169.031 4.50781 169.703 5.14844 170.266 5.88281C170.844 6.60156 171.297 7.41406 171.625 8.32031C171.953 9.21094 172.117 10.1875 172.117 11.25C172.117 12.625 171.859 13.9141 171.344 15.1172C170.828 16.3047 170.055 17.3594 169.023 18.2812C170.523 19.0625 171.602 20.0703 172.258 21.3047C172.914 22.5391 173.242 23.9844 173.242 25.6406ZM164.008 13.5C164.008 12.9844 163.891 12.5234 163.656 12.1172C163.438 11.6953 163.141 11.3359 162.766 11.0391C162.391 10.7422 161.969 10.5156 161.5 10.3594C161.047 10.2031 160.586 10.125 160.117 10.125C159.633 10.125 159.156 10.2031 158.688 10.3594C158.219 10.5156 157.797 10.7422 157.422 11.0391C157.047 11.3359 156.742 11.6953 156.508 12.1172C156.289 12.5234 156.18 12.9844 156.18 13.5C156.18 14.0156 156.289 14.4844 156.508 14.9062C156.742 15.3125 157.047 15.6562 157.422 15.9375C157.797 16.2188 158.219 16.4375 158.688 16.5938C159.156 16.75 159.633 16.8281 160.117 16.8281C160.586 16.8281 161.047 16.75 161.5 16.5938C161.969 16.4375 162.391 16.2188 162.766 15.9375C163.141 15.6562 163.438 15.3125 163.656 14.9062C163.891 14.4844 164.008 14.0156 164.008 13.5ZM163.961 24.5156C163.961 24 163.844 23.5391 163.609 23.1328C163.391 22.7109 163.102 22.3594 162.742 22.0781C162.383 21.7969 161.969 21.5781 161.5 21.4219C161.047 21.2656 160.586 21.1875 160.117 21.1875C159.648 21.1875 159.18 21.2656 158.711 21.4219C158.258 21.5781 157.844 21.7969 157.469 22.0781C157.094 22.3594 156.789 22.7109 156.555 23.1328C156.336 23.5391 156.227 24 156.227 24.5156C156.227 25.0156 156.336 25.4688 156.555 25.875C156.789 26.2812 157.094 26.625 157.469 26.9062C157.844 27.1875 158.258 27.4062 158.711 27.5625C159.18 27.7188 159.648 27.7969 160.117 27.7969C160.586 27.7969 161.047 27.7188 161.5 27.5625C161.969 27.4062 162.383 27.1875 162.742 26.9062C163.102 26.625 163.391 26.2812 163.609 25.875C163.844 25.4688 163.961 25.0156 163.961 24.5156Z" fill="#4EFF9F"/>
<path d="M25.4219 3.04687L24.1094 12.9375C23.6562 12.8125 23.2031 12.7266 22.75 12.6797C22.2969 12.6328 21.8438 12.6094 21.3906 12.6094C20.2344 12.6094 19.1328 12.7656 18.0859 13.0781C17.0391 13.375 16.1094 13.8359 15.2969 14.4609C14.5 15.0859 13.8594 15.8672 13.375 16.8047C12.9062 17.7422 12.6719 18.8437 12.6719 20.1094C12.6719 20.9219 12.7969 21.625 13.0469 22.2187C13.3125 22.8125 13.6797 23.3047 14.1484 23.6953C14.6172 24.0859 15.1719 24.375 15.8125 24.5625C16.4531 24.75 17.1562 24.8437 17.9219 24.8437C18.5 24.8437 19.1016 24.7812 19.7266 24.6562C20.3516 24.5312 20.9688 24.3672 21.5781 24.1641C22.1875 23.9609 22.7812 23.7266 23.3594 23.4609C23.9375 23.1953 24.4688 22.9219 24.9531 22.6406L24.0156 33.6562C23.4062 33.9688 22.7422 34.25 22.0234 34.5C21.3203 34.7344 20.5938 34.9453 19.8438 35.1328C19.0938 35.3047 18.3438 35.4375 17.5938 35.5312C16.8438 35.625 16.125 35.6719 15.4375 35.6719C13.4531 35.6719 11.6016 35.3047 9.88281 34.5703C8.16406 33.8359 6.67188 32.8281 5.40625 31.5469C4.14062 30.2656 3.14062 28.7578 2.40625 27.0234C1.6875 25.2734 1.32812 23.3906 1.32812 21.375C1.32813 18.7031 1.71094 16.1875 2.47656 13.8281C3.24219 11.4531 4.36719 9.375 5.85156 7.59375C7.33594 5.8125 9.17188 4.40625 11.3594 3.375C13.5625 2.34375 16.0938 1.82812 18.9531 1.82812C20.0312 1.82812 21.1328 1.91406 22.2578 2.08594C23.3984 2.25781 24.4531 2.57812 25.4219 3.04687Z" stroke="black" stroke-width="2" mask="url(#path-2-outside-2_1111_41636)"/>
<path d="M54.3672 13.4062C54.3672 14.625 54.2578 15.7344 54.0391 16.7344C53.8359 17.7187 53.5078 18.625 53.0547 19.4531C52.6016 20.2812 52.0156 21.0469 51.2969 21.75C50.5781 22.4531 49.7109 23.125 48.6953 23.7656L54.2734 33.7031L43.7266 35.7656L40.1172 25.7812L37.2109 25.875L36.7891 35.625H26.7109C26.7891 32.0625 26.8594 28.5156 26.9219 24.9844C27 21.4531 27.0859 17.9062 27.1797 14.3437C27.2109 12.5469 27.2422 10.7656 27.2734 9C27.3047 7.23437 27.3672 5.45312 27.4609 3.65625C28.5547 3.25 29.6328 2.91406 30.6953 2.64844C31.7578 2.38281 32.8203 2.17969 33.8828 2.03906C34.9609 1.88281 36.0469 1.78125 37.1406 1.73437C38.25 1.67187 39.3828 1.64062 40.5391 1.64062C42.3203 1.64062 44.0391 1.89062 45.6953 2.39062C47.3672 2.875 48.8438 3.60937 50.125 4.59375C51.4062 5.57812 52.4297 6.80469 53.1953 8.27344C53.9766 9.74219 54.3672 11.4531 54.3672 13.4062ZM43.8672 14.1562C43.8672 13.5 43.7734 12.8984 43.5859 12.3516C43.4141 11.8047 43.1484 11.3359 42.7891 10.9453C42.4453 10.5391 42.0078 10.2266 41.4766 10.0078C40.9609 9.77344 40.3516 9.65625 39.6484 9.65625C39.3359 9.65625 39.0312 9.67969 38.7344 9.72656C38.4375 9.75781 38.1484 9.8125 37.8672 9.89062L37.4922 18.6094H38.0547C38.7266 18.6094 39.4062 18.5234 40.0938 18.3516C40.7969 18.1797 41.4219 17.9141 41.9688 17.5547C42.5312 17.1953 42.9844 16.7344 43.3281 16.1719C43.6875 15.6094 43.8672 14.9375 43.8672 14.1562Z" stroke="black" stroke-width="2" mask="url(#path-2-outside-2_1111_41636)"/>
<path d="M85.5625 33.9844L73.9375 35.4844L72.5312 30.1875H67.1875L66.0156 35.4844L54.0625 34.3125L63.3906 3.09375L76.4219 2.4375L85.5625 33.9844ZM71.6875 23.0156L69.9062 14.8594L68.1719 23.0156H71.6875Z" stroke="black" stroke-width="2" mask="url(#path-2-outside-2_1111_41636)"/>
<path d="M107.5 10.2656L96.7656 24.75H107.125L106.984 34.6875L86.0781 35.5312L85.1406 26.3438L97.375 10.4062L86.1719 11.25L86.0781 1.82812L107.078 1.82812L107.5 10.2656Z" stroke="black" stroke-width="2" mask="url(#path-2-outside-2_1111_41636)"/>
<path d="M139.281 4.26562L126.391 22.2656L125.781 36.9375H114.672L114.953 22.3594L108.25 4.96875L120.203 3.46875L122.078 13.5938L128.031 3.46875L139.281 4.26562Z" stroke="black" stroke-width="2" mask="url(#path-2-outside-2_1111_41636)"/>
<path d="M173.242 25.6406C173.242 26.9062 173.07 28.0391 172.727 29.0391C172.383 30.0391 171.906 30.9297 171.297 31.7109C170.703 32.4766 169.992 33.1328 169.164 33.6797C168.352 34.2266 167.453 34.6797 166.469 35.0391C165.5 35.3828 164.477 35.6406 163.398 35.8125C162.32 35.9688 161.227 36.0469 160.117 36.0469C158.539 36.0469 156.977 35.8359 155.43 35.4141C153.898 34.9922 152.516 34.3516 151.281 33.4922C150.062 32.6172 149.07 31.5312 148.305 30.2344C147.555 28.9375 147.18 27.4062 147.18 25.6406C147.18 24.9219 147.266 24.2031 147.438 23.4844C147.609 22.75 147.859 22.0547 148.188 21.3984C148.516 20.7422 148.93 20.1484 149.43 19.6172C149.93 19.0859 150.508 18.6406 151.164 18.2812C150.133 17.3594 149.359 16.3047 148.844 15.1172C148.328 13.9141 148.07 12.625 148.07 11.25C148.07 9.64062 148.422 8.23438 149.125 7.03125C149.844 5.8125 150.773 4.79688 151.914 3.98438C153.07 3.15625 154.367 2.53906 155.805 2.13281C157.242 1.71094 158.68 1.5 160.117 1.5C161.07 1.5 162.023 1.59375 162.977 1.78125C163.945 1.96875 164.875 2.24219 165.766 2.60156C166.656 2.96094 167.484 3.41406 168.25 3.96094C169.031 4.50781 169.703 5.14844 170.266 5.88281C170.844 6.60156 171.297 7.41406 171.625 8.32031C171.953 9.21094 172.117 10.1875 172.117 11.25C172.117 12.625 171.859 13.9141 171.344 15.1172C170.828 16.3047 170.055 17.3594 169.023 18.2812C170.523 19.0625 171.602 20.0703 172.258 21.3047C172.914 22.5391 173.242 23.9844 173.242 25.6406ZM164.008 13.5C164.008 12.9844 163.891 12.5234 163.656 12.1172C163.438 11.6953 163.141 11.3359 162.766 11.0391C162.391 10.7422 161.969 10.5156 161.5 10.3594C161.047 10.2031 160.586 10.125 160.117 10.125C159.633 10.125 159.156 10.2031 158.688 10.3594C158.219 10.5156 157.797 10.7422 157.422 11.0391C157.047 11.3359 156.742 11.6953 156.508 12.1172C156.289 12.5234 156.18 12.9844 156.18 13.5C156.18 14.0156 156.289 14.4844 156.508 14.9062C156.742 15.3125 157.047 15.6562 157.422 15.9375C157.797 16.2188 158.219 16.4375 158.688 16.5938C159.156 16.75 159.633 16.8281 160.117 16.8281C160.586 16.8281 161.047 16.75 161.5 16.5938C161.969 16.4375 162.391 16.2188 162.766 15.9375C163.141 15.6562 163.438 15.3125 163.656 14.9062C163.891 14.4844 164.008 14.0156 164.008 13.5ZM163.961 24.5156C163.961 24 163.844 23.5391 163.609 23.1328C163.391 22.7109 163.102 22.3594 162.742 22.0781C162.383 21.7969 161.969 21.5781 161.5 21.4219C161.047 21.2656 160.586 21.1875 160.117 21.1875C159.648 21.1875 159.18 21.2656 158.711 21.4219C158.258 21.5781 157.844 21.7969 157.469 22.0781C157.094 22.3594 156.789 22.7109 156.555 23.1328C156.336 23.5391 156.227 24 156.227 24.5156C156.227 25.0156 156.336 25.4688 156.555 25.875C156.789 26.2812 157.094 26.625 157.469 26.9062C157.844 27.1875 158.258 27.4062 158.711 27.5625C159.18 27.7188 159.648 27.7969 160.117 27.7969C160.586 27.7969 161.047 27.7188 161.5 27.5625C161.969 27.4062 162.383 27.1875 162.742 26.9062C163.102 26.625 163.391 26.2812 163.609 25.875C163.844 25.4688 163.961 25.0156 163.961 24.5156Z" stroke="black" stroke-width="2" mask="url(#path-2-outside-2_1111_41636)"/>
</svg>
